<svg width="48" height="48" viewBox="0 0 48 48" fill="none" xmlns="http://www.w3.org/2000/svg">
<path d="M24 48C37.2548 48 48 37.2548 48 24C48 10.7452 37.2548 0 24 0C10.7452 0 0 10.7452 0 24C0 37.2548 10.7452 48 24 48Z" fill="#E0E0E0"/>
<path d="M20.1985 31.245L20.191 31.2405L15.91 26.955C15.6916 26.7483 15.5168 26.4999 15.396 26.2245C15.2752 25.9491 15.2109 25.6522 15.2068 25.3515C15.2026 25.0508 15.2589 24.7523 15.3721 24.4737C15.4853 24.1951 15.6532 23.942 15.8659 23.7294C16.0786 23.5168 16.3318 23.349 16.6105 23.2359C16.8891 23.1228 17.1876 23.0667 17.4884 23.071C17.7891 23.0752 18.0859 23.1397 18.3612 23.2607C18.6366 23.3816 18.8849 23.5565 19.0915 23.775L21.7915 26.472L31.105 17.157C31.3127 16.9422 31.561 16.7709 31.8356 16.6531C32.1102 16.5353 32.4054 16.4734 32.7042 16.471C33.0029 16.4685 33.2992 16.5256 33.5757 16.6388C33.8521 16.7521 34.1033 16.9193 34.3144 17.1306C34.5256 17.342 34.6925 17.5933 34.8055 17.8699C34.9185 18.1464 34.9753 18.4427 34.9726 18.7415C34.9698 19.0402 34.9076 19.3355 34.7896 19.6099C34.6715 19.8844 34.5 20.1326 34.285 20.34L23.389 31.236L23.3815 31.245C22.9596 31.6668 22.3874 31.9038 21.7908 31.9038C21.1942 31.9038 20.622 31.6668 20.2 31.245H20.1985Z" fill="white"/>
</svg>
