<svg width="48" height="48" viewBox="0 0 48 48" fill="none" xmlns="http://www.w3.org/2000/svg">
<path d="M24 48C37.2548 48 48 37.2548 48 24C48 10.7452 37.2548 0 24 0C10.7452 0 0 10.7452 0 24C0 37.2548 10.7452 48 24 48Z" fill="#55A362"/>
<path d="M19.1985 31.245L19.191 31.2405L14.91 26.955C14.6916 26.7483 14.5168 26.4999 14.396 26.2245C14.2752 25.9491 14.2109 25.6522 14.2068 25.3515C14.2026 25.0508 14.2589 24.7523 14.3721 24.4737C14.4853 24.1951 14.6532 23.942 14.8659 23.7294C15.0786 23.5168 15.3318 23.349 15.6105 23.2359C15.8891 23.1228 16.1876 23.0667 16.4884 23.071C16.7891 23.0752 17.0859 23.1397 17.3612 23.2607C17.6366 23.3816 17.8849 23.5565 18.0915 23.775L20.7915 26.472L30.105 17.157C30.3127 16.9422 30.561 16.7709 30.8356 16.6531C31.1102 16.5353 31.4054 16.4734 31.7042 16.471C32.0029 16.4685 32.2992 16.5256 32.5757 16.6388C32.8521 16.7521 33.1033 16.9193 33.3144 17.1306C33.5256 17.342 33.6925 17.5933 33.8055 17.8699C33.9185 18.1464 33.9753 18.4427 33.9726 18.7415C33.9698 19.0402 33.9076 19.3355 33.7896 19.6099C33.6715 19.8844 33.5 20.1326 33.285 20.34L22.389 31.236L22.3815 31.245C21.9596 31.6668 21.3874 31.9038 20.7908 31.9038C20.1942 31.9038 19.622 31.6668 19.2 31.245H19.1985Z" fill="white"/>
</svg>
