<svg xmlns="http://www.w3.org/2000/svg" width="61" height="35"
     viewBox="0 0 61 35">
  <defs>
    <clipPath id="clip-custom_1">
      <rect width="61" height="35"/>
    </clipPath>
  </defs>
  <g id="custom_1" data-name="custom – 1" clip-path="url(#clip-custom_1)">
    <rect width="61" height="35" fill="#fff"/>
    <g id="iconfinder_icon-29-file-doc_314955" transform="translate(-5 -10)">
      <g id="icon-29-file-doc" transform="translate(5 10)">
        <path id="file-doc" d="M12.975,10A7.963,7.963,0,0,0,5,17.953V36.525a7.947,7.947,0,0,0,7.975,7.953H58.025A7.963,7.963,0,0,0,66,36.525V17.953A7.947,7.947,0,0,0,58.025,10Zm-.033,2.652a5.3,5.3,0,0,0-5.29,5.283V36.543a5.3,5.3,0,0,0,5.29,5.283H58.058a5.3,5.3,0,0,0,5.29-5.283V17.935a5.3,5.3,0,0,0-5.29-5.283Zm.014,5.3V36.522H20.9a5.3,5.3,0,0,0,5.317-5.32V23.277a5.312,5.312,0,0,0-5.317-5.32Zm2.652,2.652V33.87h5.307a2.644,2.644,0,0,0,2.649-2.652V23.26a2.643,2.643,0,0,0-2.649-2.652Zm18.578-2.652a5.3,5.3,0,0,0-5.317,5.32V31.2a5.312,5.312,0,0,0,5.317,5.32h2.626A5.3,5.3,0,0,0,42.13,31.2V23.277a5.312,5.312,0,0,0-5.317-5.32Zm-.016,2.652a2.644,2.644,0,0,0-2.649,2.652v7.958a2.643,2.643,0,0,0,2.649,2.652h2.658a2.644,2.644,0,0,0,2.649-2.652V23.26a2.643,2.643,0,0,0-2.649-2.652ZM58.043,31.217a5.3,5.3,0,0,1-5.317,5.3H50.1a5.312,5.312,0,0,1-5.317-5.32V23.277a5.3,5.3,0,0,1,5.317-5.32h2.626a5.312,5.312,0,0,1,5.317,5.3H55.391a2.643,2.643,0,0,0-2.649-2.652H50.084a2.644,2.644,0,0,0-2.649,2.652v7.958a2.643,2.643,0,0,0,2.649,2.652h2.658a2.644,2.644,0,0,0,2.649-2.652Z" transform="translate(-5 -10)" fill="#157efb" fill-rule="evenodd"/>
      </g>
    </g>
  </g>
</svg>
