<svg width="338" height="101" viewBox="0 0 338 101" fill="none" xmlns="http://www.w3.org/2000/svg">
<path d="M121.985 40.865L111.146 7.31775H121.779L127.748 26.8698L133.236 7.31775H143.595L132.893 40.865V62.8868H121.985V40.865Z" fill="#4C4C4C"/>
<path d="M159.344 63.5728C155.045 63.5728 151.729 62.4294 149.397 60.1427C147.11 57.8559 145.966 54.54 145.966 50.1951V35.9255C145.966 31.5806 147.11 28.2648 149.397 25.978C151.729 23.6912 155.045 22.5478 159.344 22.5478C163.643 22.5478 166.936 23.6912 169.223 25.978C171.556 28.2648 172.722 31.5806 172.722 35.9255V50.1951C172.722 54.54 171.556 57.8559 169.223 60.1427C166.936 62.4294 163.643 63.5728 159.344 63.5728ZM159.413 56.5753C160.602 56.5753 161.402 56.1179 161.814 55.2032C162.271 54.2427 162.5 52.8249 162.5 50.9498V35.2395C162.5 33.3643 162.271 31.9465 161.814 30.9861C161.402 30.0256 160.602 29.5454 159.413 29.5454C158.178 29.5454 157.332 30.0485 156.874 31.0547C156.417 32.0151 156.188 33.4101 156.188 35.2395V50.9498C156.188 52.7792 156.417 54.1741 156.874 55.1346C157.332 56.095 158.178 56.5753 159.413 56.5753Z" fill="#4C4C4C"/>
<path d="M191.362 76.2645C186.971 76.2645 183.495 75.6014 180.934 74.275C178.419 72.9487 177.161 70.9821 177.161 68.3751C177.161 64.8992 179.196 62.2694 183.267 60.4857C179.791 59.571 178.053 57.6272 178.053 54.6544C178.053 53.1908 178.396 51.8873 179.082 50.7439C179.813 49.6005 180.934 48.3657 182.443 47.0393C181.117 45.8959 180.111 44.4781 179.425 42.7859C178.784 41.0479 178.464 38.9441 178.464 36.4744C178.464 31.9465 179.608 28.4935 181.894 26.1152C184.227 23.7369 187.589 22.5478 191.979 22.5478C196.05 22.5478 199.091 23.6912 201.104 25.978C201.561 25.2005 202.224 24.4458 203.093 23.7141C203.962 22.9823 204.945 22.3648 206.043 21.8617L207.415 21.1757L209.885 26.3896C209.199 26.6183 208.17 27.0299 206.798 27.6245C205.426 28.1733 204.351 28.6764 203.573 29.1338C204.031 30.0942 204.374 31.2376 204.602 32.5639C204.877 33.8903 205.014 35.2166 205.014 36.543C205.014 40.8879 203.916 44.2495 201.721 46.6277C199.571 49.006 196.324 50.1951 191.979 50.1951C189.692 50.1951 187.657 49.875 185.873 49.2347C185.142 50.1494 184.776 50.9955 184.776 51.773C184.776 52.3218 185.05 52.7563 185.599 53.0765C186.148 53.3966 187.085 53.6253 188.412 53.7625L197.948 54.7916C204.442 55.5233 207.689 58.9307 207.689 65.0135C207.689 68.8096 206.386 71.6224 203.779 73.4518C201.218 75.327 197.079 76.2645 191.362 76.2645ZM191.979 43.8836C193.351 43.8836 194.266 43.3576 194.723 42.3057C195.181 41.208 195.409 39.2642 195.409 36.4744C195.409 33.6387 195.181 31.6721 194.723 30.5744C194.266 29.431 193.351 28.8593 191.979 28.8593C190.607 28.8593 189.67 29.431 189.166 30.5744C188.709 31.7178 188.48 33.6845 188.48 36.4744C188.48 39.127 188.709 41.0251 189.166 42.1685C189.67 43.3119 190.607 43.8836 191.979 43.8836ZM192.665 68.7181C195.318 68.7181 197.262 68.4666 198.497 67.9635C199.777 67.5061 200.417 66.66 200.417 65.4252C200.417 64.3732 200.006 63.5957 199.183 63.0926C198.359 62.6353 196.827 62.3151 194.586 62.1322L187.451 61.3775C186.674 62.0636 186.056 62.7039 185.599 63.2984C185.187 63.9387 184.982 64.6248 184.982 65.3565C184.982 66.4999 185.576 67.3461 186.765 67.8949C187.954 68.4437 189.921 68.7181 192.665 68.7181Z" fill="#4C4C4C"/>
<path d="M212.581 8.96424H223.009V16.7165H212.581V8.96424ZM212.65 23.2338H223.009V62.8868H212.65V23.2338Z" fill="#4C4C4C"/>
<path d="M231.572 7.31775H243.577L250.438 42.3743L257.71 7.31775H269.304L270.333 62.8868H262.1L261.208 25.1547L254.074 62.8868H247.076L239.735 24.9489L238.912 62.8868H230.611L231.572 7.31775Z" fill="#4C4C4C"/>
<path d="M285.859 63.5728C284.029 63.5728 282.428 63.1155 281.056 62.2008C279.684 61.2861 278.632 60.0969 277.901 58.6334C277.215 57.1241 276.872 55.5691 276.872 53.9683C276.872 50.904 277.626 48.3885 279.135 46.4219C280.645 44.4553 282.451 42.9231 284.555 41.8255C286.705 40.7278 289.54 39.5387 293.062 38.2581V34.5535C293.062 33.1356 292.856 32.0608 292.445 31.3291C292.079 30.5973 291.393 30.2314 290.386 30.2314C289.38 30.2314 288.671 30.5516 288.26 31.1919C287.848 31.8322 287.597 32.7469 287.505 33.936L287.299 36.6802L277.558 36.2685C277.741 31.5578 278.953 28.1047 281.194 25.9094C283.435 23.6683 286.796 22.5478 291.278 22.5478C295.166 22.5478 298.093 23.6226 300.06 25.7722C302.026 27.9218 303.01 30.8717 303.01 34.6221V53.0765C303.01 56.1865 303.238 59.4566 303.696 62.8868H294.434C294.251 61.5605 293.954 59.6624 293.542 57.1927C292.993 59.0221 292.056 60.5543 290.73 61.7891C289.449 62.9783 287.825 63.5728 285.859 63.5728ZM289.563 56.2322C290.249 56.2322 290.89 56.0036 291.484 55.5462C292.124 55.0888 292.65 54.5629 293.062 53.9683V43.0603C290.912 44.2952 289.266 45.5758 288.123 46.9021C286.979 48.2285 286.407 49.8521 286.407 51.773C286.407 53.1908 286.682 54.2885 287.231 55.066C287.78 55.8435 288.557 56.2322 289.563 56.2322Z" fill="#4C4C4C"/>
<path d="M309.858 23.2338H320.148V26.1838C322.801 23.7598 325.614 22.5478 328.586 22.5478C331.559 22.5935 333.732 23.8055 335.104 26.1838C336.476 28.5621 337.162 31.4891 337.162 34.9651V50.4695C337.162 54.4028 336.407 57.5815 334.898 60.0055C333.389 62.3837 331.171 63.5728 328.243 63.5728C325.637 63.5728 322.938 62.338 320.148 59.8682V75.9215H309.858V23.2338ZM323.647 56.6439C325.751 56.6439 326.803 54.723 326.803 50.8812V34.279C326.803 30.8031 325.774 29.0651 323.716 29.0651C322.618 29.0651 321.429 29.5682 320.148 30.5744V55.4776C321.383 56.2551 322.549 56.6439 323.647 56.6439Z" fill="#4C4C4C"/>
<path d="M41.4493 0.073181C31.1318 1.27009 22.6576 4.51884 15.9755 9.84795C7.50132 16.6019 2.40657 25.6073 0.409628 37.3769C0.102407 39.2862 0 41.4521 0 45.7838C0 51.0274 0.0768053 52.0248 0.71685 55.3305C1.68972 60.5172 2.893 64.3644 4.96674 69.0095C7.06609 73.6832 9.34465 77.3309 12.4425 80.9786C16.5387 85.7948 21.5055 89.756 27.8547 93.2327C48.4385 104.546 76.1653 103.492 108.705 90.1264C117.794 86.3932 124.194 83.3154 136.688 76.6469C146.749 71.2608 149.389 69.722 155.226 68.639C159.579 67.8411 168.511 67.4421 171.762 68.753C171.662 68.8394 175.494 69.0674 175.315 68.8394C174.828 68.2694 167.692 66.5302 165.362 65.9887C163.749 65.5898 161.957 65.4473 159.345 65.4188C151.742 65.3903 146.263 66.9007 131.567 73.0847C108.244 82.888 90.5535 88.1316 74.0915 90.1549C68.5103 90.8389 56.0423 90.8389 51.4852 90.1549C37.353 88.0461 25.3201 82.147 17.614 73.5977C6.83567 61.5716 3.58425 44.0169 9.44705 29.6255C13.7225 19.1952 23.7584 10.8169 36.4569 7.05515C47.1841 3.86339 58.6793 3.72091 68.9968 6.62769C71.941 7.42563 75.4228 8.76503 77.5478 9.90494C78.367 10.3324 79.1095 10.6744 79.1607 10.6174C79.3399 10.4179 75.346 7.73911 72.6578 6.28571C67.7679 3.63541 61.6491 1.61207 55.5302 0.586143C53.0725 0.187173 43.5742 -0.154802 41.4493 0.073181Z" fill="#4C4C4C"/>
<path d="M47.6078 21.0822C43.9364 21.5768 40.3554 23.5942 37.9719 26.5097C34.6168 30.6226 33.2048 36.3364 34.0972 42.2064C34.2327 43.1435 34.3457 43.56 34.3796 43.2477C34.3796 43.1826 34.4022 41.9331 34.4135 40.4623C34.4361 37.5859 34.6055 36.3104 35.2381 34.28C36.3452 30.7267 38.6836 27.5379 41.7675 25.3643C44.3318 23.5422 47.845 22.1755 51.2566 21.6679C52.2732 21.5117 52.3523 21.4857 52.0699 21.3555C51.2566 20.9651 49.3587 20.8479 47.6078 21.0822Z" fill="#4C4C4C"/>
<path d="M63.4907 25.9239C62.9484 27.1603 61.9995 29.2428 61.3782 30.5574L60.2599 32.9523L61.0845 35.1128C61.5364 36.2972 62.0673 37.7029 62.2819 38.2366L62.666 39.1997L63.5697 36.0499C64.1797 33.8894 64.496 32.9783 64.5525 33.1345C64.5977 33.2646 64.9253 34.6443 65.2755 36.1931C65.6257 37.755 65.9533 39.0305 65.9985 39.0305C66.0437 39.0305 66.6424 37.6899 67.3315 36.063L68.5967 33.0954L66.5294 28.3968L64.4734 23.6982L63.4907 25.9239Z" fill="#4C4C4C"/>
<path d="M55.2329 29.1783C54.7471 32.0026 53.5384 35.2305 50.4432 41.9335C49.7202 43.5084 48.8616 45.5778 48.5227 46.554C47.732 48.8708 47.54 50.1333 47.619 52.3719C47.7433 55.6128 48.5905 58.2029 50.1946 60.1682C50.895 61.0403 53.4932 63.1228 54.8036 63.8907C55.4362 64.2551 56.9725 64.8018 57.3679 64.8018C57.4583 64.8018 57.1985 64.4373 56.8144 63.9818C55.8994 62.9275 55.2103 61.9253 54.8601 61.1314C54.1371 59.4914 54.0693 57.3178 54.6906 55.1963C55.2893 53.1268 55.9332 51.8904 58.2603 48.272C60.723 44.4585 61.9995 41.8424 61.9769 40.658C61.9543 39.1872 60.3615 34.7359 59.0172 32.3931C58.3394 31.2087 56.9838 29.3995 56.1479 28.5795C55.809 28.2411 55.504 27.9678 55.4814 27.9678C55.4588 27.9678 55.3458 28.5145 55.2329 29.1783Z" fill="#4C4C4C"/>
<path d="M72.799 28.6184C71.9969 29.3863 70.5736 31.2996 69.8845 32.523C68.7774 34.5014 67.5009 37.9115 67.0716 40.007C66.9248 40.7358 66.9248 40.8269 67.1733 41.6599C67.6026 43.0786 69.0598 45.7468 71.1723 48.9747C73.827 53.0355 74.6968 55.2612 74.6968 58.0465C74.6968 60.2982 74.1546 61.6257 72.3923 63.7212C71.8614 64.346 71.4208 64.8796 71.4208 64.8796C71.4208 64.8926 71.884 64.7755 72.4488 64.6063C73.6236 64.2549 74.6177 63.6952 76.2783 62.4197C78.1535 60.975 78.6054 60.5455 79.2606 59.5563C80.4467 57.7601 81.1471 55.5865 81.3617 53.0355C81.6215 49.9378 80.9437 47.1004 78.8878 42.6751C77.3515 39.3822 75.1599 34.2801 74.7307 32.9786C74.5047 32.3408 74.1433 30.9351 73.9173 29.8809L73.4994 27.9546L72.799 28.6184Z" fill="#4C4C4C"/>
<path d="M40.8638 29.7379C40.8976 30.0242 40.9767 30.5058 41.0332 30.8312C41.0897 31.1565 41.1914 32.2108 41.2704 33.1609C41.4399 35.4126 41.2817 38.224 40.7282 42.5451C40.378 45.2784 40.3102 46.0723 40.3102 48.1418C40.3102 50.0941 40.3441 50.7189 40.5136 51.4608C41.1575 54.207 42.5808 56.7451 44.6368 58.7755C46.4781 60.5977 49.5056 62.6411 51.5502 63.4351C52.646 63.8646 52.7251 63.8516 51.9908 63.2789C50.8838 62.4329 49.6072 61.1183 48.873 60.064C48.037 58.8666 47.2124 57.0314 46.9526 55.821C46.6024 54.2331 46.93 50.016 47.5965 47.2307C47.9467 45.812 48.5341 44.3022 49.7089 41.8813C50.6691 39.8639 51.426 38.1068 51.426 37.8595C51.426 37.7945 50.9967 37.2348 50.4658 36.597C49.9461 35.9723 49.5056 35.4126 49.5056 35.3606C49.5056 35.1653 46.817 32.4841 45.902 31.7683C44.2866 30.4928 42.4792 29.5296 41.3156 29.3214L40.796 29.2433L40.8638 29.7379Z" fill="#4C4C4C"/>
<path d="M87.1794 29.6074C86.8066 29.7115 85.8916 30.141 85.146 30.5705C83.0335 31.794 81.4746 33.2257 78.9442 36.3364L77.6112 37.9894L77.9275 38.8484C78.097 39.317 78.594 40.4233 79.0233 41.2953C81.0679 45.4473 81.6667 47.3085 82.1072 50.9399C82.3896 53.3347 82.3557 55.261 81.9943 56.5365C81.3843 58.7492 79.7576 61.2091 77.8146 62.8491C77.3175 63.2786 76.7979 63.7081 76.6736 63.8252C76.3008 64.1376 78.3116 63.3176 79.4525 62.6799C83.4515 60.4542 86.671 57.0571 87.9701 53.6731C88.5688 52.1112 88.727 51.2132 88.7835 48.9875C88.8399 46.84 88.8173 46.5536 88.2073 41.4385C87.6538 36.844 87.6199 33.8244 88.0831 30.7788C88.1734 30.141 88.2525 29.5684 88.2525 29.5163C88.2525 29.3601 87.9927 29.3861 87.1794 29.6074Z" fill="#4C4C4C"/>
<path d="M64.1345 37.4039C63.0501 40.801 61.8075 43.7945 60.6665 45.825C60.3276 46.4237 59.4578 47.8163 58.7235 48.9227C57.3228 51.0572 56.3626 53.0486 56.0011 54.5844C55.7074 55.8079 55.6509 58.1897 55.8768 59.3611C56.5207 62.6931 58.588 64.9448 61.9204 65.9209C63.2534 66.3244 65.219 66.3635 66.6198 66.0381C69.7941 65.2832 72.1889 63.0055 73.0362 59.9208C73.3977 58.5802 73.3638 56.4587 72.9571 54.8447C72.5278 53.1527 71.5676 51.0572 70.3476 49.1179C66.8118 43.5082 65.8968 41.7511 64.3831 37.5992C64.2362 37.1957 64.2136 37.1696 64.1345 37.4039Z" fill="#4C4C4C"/>
<path d="M35.3284 48.4802C34.3118 48.6364 33.4532 48.8576 31.77 49.3783C28.7991 50.2894 28.0761 50.4065 25.5005 50.4065C23.4219 50.4065 23.083 50.3805 21.2869 49.99C20.2137 49.7557 19.2535 49.5214 19.1632 49.4824C18.6209 49.2481 20.2476 51.682 21.7952 53.4521C23.8964 55.834 26.8674 58.1898 30.0191 59.9859C33.2047 61.8081 36.7066 63.0446 40.9767 63.8776C44.2414 64.5023 49.1554 65.062 50.1833 64.9318L50.6917 64.8537L50.285 64.6455C50.0591 64.5414 49.7541 64.3982 49.6072 64.3461C48.9746 64.1118 47.1107 62.9405 46.1731 62.1855C44.874 61.1183 42.5356 58.4371 41.6093 56.9273C40.2763 54.7667 39.5872 52.7363 39.2709 50.0421C39.1805 49.2611 39.0902 48.5843 39.0563 48.5583C38.9885 48.4672 35.769 48.4151 35.3284 48.4802Z" fill="#4C4C4C"/>
<path d="M90.2068 48.4931L89.7324 48.5452L89.6646 49.2871C89.2579 53.6473 87.891 56.6929 84.7958 60.116C82.9884 62.1074 81.2148 63.474 79.3735 64.281C78.8199 64.5152 78.3229 64.7625 78.2664 64.8276C78.0631 65.0228 80.2998 64.9317 82.6382 64.6584C89.9244 63.8124 94.7367 62.3937 99.1536 59.8166C103.491 57.2916 107.445 53.6212 109.388 50.3283C109.885 49.4953 109.908 49.3912 109.625 49.5083C109.501 49.5474 108.575 49.7556 107.558 49.9769C103.819 50.7708 100.972 50.6277 97.2897 49.4433C94.9062 48.6753 94.1493 48.5191 92.3757 48.4801C91.4494 48.4541 90.4666 48.4541 90.2068 48.4931Z" fill="#4C4C4C"/>
</svg>
