<svg width="176" height="101" viewBox="0 0 176 101" fill="none" xmlns="http://www.w3.org/2000/svg">
<path d="M41.4493 0.0731812C31.1318 1.27009 22.6576 4.51884 15.9755 9.84795C7.50132 16.6019 2.40657 25.6073 0.409628 37.3769C0.102407 39.2862 0 41.4521 0 45.7838C0 51.0274 0.0768053 52.0248 0.71685 55.3305C1.68972 60.5172 2.893 64.3644 4.96674 69.0095C7.06609 73.6832 9.34465 77.3309 12.4425 80.9786C16.5387 85.7948 21.5055 89.756 27.8547 93.2327C48.4385 104.546 76.1653 103.492 108.705 90.1264C117.794 86.3932 124.194 83.3154 136.688 76.6469C146.749 71.2608 149.389 69.722 155.226 68.639C159.579 67.8411 168.511 67.4421 171.762 68.753C171.662 68.8394 175.494 69.0674 175.314 68.8394C174.828 68.2695 167.692 66.5302 165.362 65.9887C163.749 65.5898 161.957 65.4473 159.345 65.4188C151.742 65.3903 146.263 66.9007 131.567 73.0847C108.244 82.888 90.5535 88.1316 74.0915 90.1549C68.5103 90.8389 56.0423 90.8389 51.4852 90.1549C37.353 88.0461 25.3201 82.147 17.614 73.5977C6.83567 61.5716 3.58425 44.0169 9.44705 29.6255C13.7225 19.1952 23.7584 10.8169 36.4569 7.05515C47.1841 3.8634 58.6793 3.72091 68.9968 6.62769C71.941 7.42563 75.4228 8.76502 77.5478 9.90494C78.367 10.3324 79.1095 10.6744 79.1607 10.6174C79.3399 10.4179 75.346 7.73911 72.6578 6.28571C67.7679 3.63541 61.6491 1.61207 55.5302 0.586143C53.0725 0.187172 43.5742 -0.1548 41.4493 0.0731812Z" fill="#4C4C4C"/>
<path d="M53.4864 57.4959C52.8683 62.7115 52.5592 66.7294 52.5592 69.5497C52.5592 72.37 52.8297 74.4176 53.3705 75.6925C50.0866 74.8426 47.8459 73.7222 46.6482 72.3314C45.4505 70.9019 44.8517 69.1247 44.8517 66.9999C44.8517 64.8363 45.1415 61.7649 45.721 57.7856C41.5871 43.0274 38.0135 33.3881 35 28.868C36.584 27.8635 38.2453 27.3612 39.9838 27.3612C40.911 27.3612 41.6837 27.4578 42.3019 27.651C42.9586 27.8055 43.5961 28.1919 44.2142 28.81C44.8324 29.4281 45.354 30.2201 45.7789 31.186C46.2425 32.1519 46.7448 33.562 47.2857 35.4164C48.2129 38.3526 49.3912 43.3751 50.8207 50.4838L51.2263 52.7439C54.7807 47.2192 57.6589 42.0036 59.8611 37.097C62.1019 32.1905 63.4154 28.3657 63.8018 25.6227C66.6993 27.2453 68.1481 29.4475 68.1481 32.2291C68.1481 34.9721 63.2609 43.3944 53.4864 57.4959Z" fill="#4C4C4C"/>
<path d="M99.26 63.8704C97.8692 64.4113 96.7874 64.6818 96.0147 64.6818C93.6967 64.6818 92.4024 64.3534 92.132 63.6966C88.2686 53.7676 85.7187 47.3737 84.4824 44.5147C84.3665 45.5579 84.0575 47.9725 83.5552 51.7586C82.5121 59.1764 81.9905 65.3385 81.9905 70.2451C81.9905 71.4427 82.0678 73.0461 82.2223 75.055C79.5179 75.055 77.6828 74.746 76.717 74.1278C75.7898 73.471 75.3261 72.5631 75.3261 71.4041C75.3261 71.0178 75.9636 65.7635 77.2385 55.6414C78.5521 45.5192 79.2089 38.4685 79.2089 34.4892V34.1994C78.0885 32.3836 76.9101 30.8962 75.6738 29.7372C77.1033 28.7327 78.8225 28.2304 80.8315 28.2304C83.3814 28.2304 85.3517 29.4281 86.7425 31.8234C88.1334 34.1801 90.8571 40.69 94.9137 51.353L97.5794 58.1912C97.8112 57.8049 98.1589 57.2833 98.6225 56.6265C108.049 42.6796 112.898 33.2142 113.168 28.2304C113.168 28.2691 113.632 28.327 114.559 28.4043C115.486 28.4429 116.472 28.6361 117.515 28.9838C118.596 29.2929 119.369 29.7951 119.833 30.4905C120.335 31.1473 120.644 31.8041 120.76 32.4609C120.876 33.079 120.934 34.1608 120.934 35.7061C120.934 37.2129 120.296 42.3319 119.021 51.0632C117.746 59.7945 117.109 65.9181 117.109 69.4338C117.109 72.9108 117.379 75.2868 117.92 76.5618C114.636 75.7118 112.396 74.5914 111.198 73.2006C110 71.7711 109.401 69.8008 109.401 67.2896C109.401 65.8215 109.788 62.2092 110.56 56.4527C111.372 50.6962 111.932 46.0987 112.241 42.6603C110.696 45.3261 108.494 48.977 105.635 53.6131C102.814 58.2492 101.114 61.0115 100.535 61.9001C99.9554 62.7501 99.5304 63.4068 99.26 63.8704Z" fill="#4C4C4C"/>
</svg>
