<?xml version="1.0" standalone="no"?>
<!DOCTYPE svg PUBLIC "-//W3C//DTD SVG 20010904//EN"
 "http://www.w3.org/TR/2001/REC-SVG-20010904/DTD/svg10.dtd">
<svg version="1.0" xmlns="http://www.w3.org/2000/svg"
 width="1280.000000pt" height="880.000000pt" viewBox="0 0 1280.000000 880.000000"
 preserveAspectRatio="xMidYMid meet">
<metadata>
Created by potrace 1.15, written by Peter Selinger 2001-2017
</metadata>
<g transform="translate(0.000000,880.000000) scale(0.100000,-0.100000)"
fill="#4C4C4C" stroke="none">
<path d="M5682 6519 c-325 -38 -642 -193 -853 -417 -297 -316 -422 -755 -343
-1206 12 -72 22 -104 25 -80 0 5 2 101 3 214 2 221 17 319 73 475 98 273 305
518 578 685 227 140 538 245 840 284 90 12 97 14 72 24 -72 30 -240 39 -395
21z"/>
<path d="M7088 6147 c-48 -95 -132 -255 -187 -356 l-99 -184 73 -166 c40 -91
87 -199 106 -240 l34 -74 80 242 c54 166 82 236 87 224 4 -10 33 -116 64 -235
31 -120 60 -218 64 -218 4 0 57 103 118 228 l112 228 -183 361 -182 361 -87
-171z"/>
<path d="M6357 5897 c-43 -217 -150 -465 -424 -980 -64 -121 -140 -280 -170
-355 -70 -178 -87 -275 -80 -447 11 -249 86 -448 228 -599 62 -67 292 -227
408 -286 56 -28 192 -70 227 -70 8 0 -15 28 -49 63 -81 81 -142 158 -173 219
-64 126 -70 293 -15 456 53 159 110 254 316 532 218 293 331 494 329 585 -2
113 -143 455 -262 635 -60 91 -180 230 -254 293 -30 26 -57 47 -59 47 -2 0
-12 -42 -22 -93z"/>
<path d="M7912 5940 c-71 -59 -197 -206 -258 -300 -98 -152 -211 -414 -249
-575 -13 -56 -13 -63 9 -127 38 -109 167 -314 354 -562 235 -312 312 -483 312
-697 0 -173 -48 -275 -204 -436 -47 -48 -86 -89 -86 -89 0 -1 41 8 91 21 104
27 192 70 339 168 166 111 206 144 264 220 105 138 167 305 186 501 23 238
-37 456 -219 796 -136 253 -330 645 -368 745 -20 49 -52 157 -72 238 l-37 148
-62 -51z"/>
<path d="M5085 5854 c3 -22 10 -59 15 -84 5 -25 14 -106 21 -179 15 -173 1
-389 -48 -721 -31 -210 -37 -271 -37 -430 0 -150 3 -198 18 -255 57 -211 183
-406 365 -562 163 -140 431 -297 612 -358 97 -33 104 -32 39 12 -98 65 -211
166 -276 247 -74 92 -147 233 -170 326 -31 122 -2 446 57 660 31 109 83 225
187 411 85 155 152 290 152 309 0 5 -38 48 -85 97 -46 48 -85 91 -85 95 0 15
-238 221 -319 276 -143 98 -303 172 -406 188 l-46 6 6 -38z"/>
<path d="M9185 5864 c-33 -8 -114 -41 -180 -74 -187 -94 -325 -204 -549 -443
l-118 -127 28 -66 c15 -36 59 -121 97 -188 181 -319 234 -462 273 -741 25
-184 22 -332 -10 -430 -54 -170 -198 -359 -370 -485 -44 -33 -90 -66 -101 -75
-33 -24 145 39 246 88 354 171 639 432 754 692 53 120 67 189 72 360 5 165 3
187 -51 580 -49 353 -52 585 -11 819 8 49 15 93 15 97 0 12 -23 10 -95 -7z"/>
<path d="M7145 5265 c-96 -261 -206 -491 -307 -647 -30 -46 -107 -153 -172
-238 -124 -164 -209 -317 -241 -435 -26 -94 -31 -277 -11 -367 57 -256 240
-429 535 -504 118 -31 292 -34 416 -9 281 58 493 233 568 470 32 103 29 266
-7 390 -38 130 -123 291 -231 440 -313 431 -394 566 -528 885 -13 31 -15 33
-22 15z"/>
<path d="M2865 4994 c-403 -42 -734 -156 -995 -343 -331 -237 -530 -553 -608
-966 -12 -67 -16 -143 -16 -295 0 -184 3 -219 28 -335 38 -182 85 -317 166
-480 82 -164 171 -292 292 -420 160 -169 354 -308 602 -430 804 -397 1887
-360 3158 109 355 131 605 239 1093 473 393 189 614 270 842 308 170 28 401
15 528 -31 14 -5 17 -4 10 4 -19 20 -169 74 -260 93 -63 14 -133 19 -235 20
-297 1 -511 -52 -1085 -269 -911 -344 -1602 -528 -2245 -599 -218 -24 -705
-24 -883 0 -552 74 -1022 281 -1323 581 -421 422 -548 1038 -319 1543 167 366
559 660 1055 792 419 112 868 117 1271 15 115 -28 251 -75 334 -115 32 -15 61
-27 63 -25 7 7 -149 101 -254 152 -191 93 -430 164 -669 200 -96 14 -467 26
-550 18z"/>
<path d="M4595 4414 c-90 -12 -166 -29 -315 -69 -263 -70 -327 -79 -555 -79
-184 0 -214 2 -373 32 -95 18 -180 36 -188 39 -48 18 96 -169 233 -305 186
-183 449 -364 728 -502 282 -140 592 -235 970 -299 289 -48 724 -91 815 -81
l45 6 -36 16 c-20 8 -47 19 -60 23 -56 18 -221 108 -304 166 -115 82 -322 288
-404 404 -118 166 -179 322 -207 529 -8 60 -16 112 -19 114 -6 7 -291 11 -330
6z"/>
<path d="M9453 4413 l-42 -4 -6 -57 c-36 -335 -157 -569 -431 -832 -160 -153
-317 -258 -480 -320 -49 -18 -93 -37 -98 -42 -18 -15 180 -8 387 13 645 65
1071 174 1462 372 384 194 734 476 906 729 44 64 46 72 21 63 -11 -3 -93 -19
-183 -36 -331 -61 -583 -50 -909 41 -211 59 -278 71 -435 74 -82 2 -169 2
-192 -1z"/>
</g>
</svg>
