<svg xmlns="http://www.w3.org/2000/svg" width="30" height="28"
     viewBox="0 0 30 28">
    <path fill=""
          d="M16.5 3.16293L22 12.1629l5.5 8.9819c1 1.5.5 3.5181-1.9395 3.2032H4.06046C2.5 24.348 2 23 2.5 22L13.7877 3.16293C14.5 2 15.9514 2 16.5 3.16293zm13 17.46697L18.5053 2c-1.5478-2.622646-5.3419-2.622648-6.8897 0L.620934 20.6299c-1.573662 2.6665.348615 6.033 3.444826 6.033H26.0552c3.0962 0 5.0185-3.3665 3.4448-6.033zM16.3332 10.0721c0-.76364-.5091-1.27273-1.2727-1.27273-.7637 0-1.2728.50909-1.2728 1.27273v5.0909c0 .7636.5091 1.2727 1.2728 1.2727.7636 0 1.2727-.5091 1.2727-1.2727v-5.0909zm0 10.1818c0-.3818-.1273-.6363-.3818-.8909-.5091-.5091-1.2727-.5091-1.7818 0-.2546.2546-.3819.6364-.3819.8909 0 .2546.1273.6364.3819.8909.2545.2546.5091.3818.8909.3818.3818 0 .6363-.1272.8909-.3818.2545-.2545.3818-.5091.3818-.8909z"
    />
</svg>
